<svg height="24" viewBox="0 0 24 24" width="24" xmlns="http://www.w3.org/2000/svg"><mask id="a" fill="#fff"><path d="M1.526.437a.322.322 0 00-.315.256l-.596 2.86a.322.322 0 00.315.387h1.788a.32.32 0 00.315-.387L2.437.694a.323.323 0 00-.315-.256zm.262.644h.073l.46 2.217h-.995z" fill-rule="evenodd"/></mask><mask id="b" fill="#fff"><path d="M10.4.169L.17 5.635a.323.323 0 00-.024.554l7.15 4.676a.319.319 0 00.176.052h5.462c.06 0 .12-.016.17-.047l7.745-4.774a.32.32 0 00-.017-.559L10.702.17a.328.328 0 00-.302 0zM.953 5.947l9.598-5.13 9.482 5.026-7.19 4.43H7.568z" fill-rule="evenodd"/></mask><mask id="c" fill="#fff"><path d="M.554.319l8.389 4.446a.306.306 0 01.017.532L2.136 9.503h1.283l7.216-4.447L1.123.015z" fill-rule="evenodd"/></mask><mask id="d" fill="#fff"><path d="M.071 1.594v3.277s.058.699.272.93c.298.323.917.285.917.285h10.13s.558.005.856-.393a1.58 1.58 0 00.293-.822V1.594S9.45.501 6.602.501C3.027.501.072 1.594.072 1.594z" fill-rule="evenodd"/></mask><mask id="e" fill="#fff"><path d="M.746 1.292a.322.322 0 00-.21.302v3.304c.016.19.088.83.356 1.121.324.352.872.39 1.092.39h10.192c.074 0 .733-.016 1.113-.522a1.89 1.89 0 00.357-1.016V1.594a.322.322 0 00-.216-.304C13.303 1.245 10.257.18 7.388.18 3.797.18.868 1.245.746 1.291zm.62 4.291c-.072-.077-.16-.42-.187-.726V1.824c.731-.24 3.273-1 6.21-1 2.333 0 4.87.762 5.612 1.001l.001 3.036c0 .003-.016.357-.229.639-.194.26-.593.264-.598.264H2.026c-.003 0-.018.002-.042.002-.208 0-.494-.048-.618-.183z" fill-rule="evenodd"/></mask><mask id="f" fill="#fff"><path d="M.885.808v3.278c0 .028-.11.397-.38.826h.773c-.005 0 .357.04.559-.23.204-.271.15-.587.15-.59 0-.004-.007-.003-.014-.003s-.015.001-.015-.003V1.028C1.744.948 1.344.807.768.656.793.701.885.754.885.81z" fill-rule="evenodd"/></mask><mask id="g" fill="#fff"><path d="M.376 1.274a.596.596 0 101.191-.001.596.596 0 00-1.19.001z" fill-rule="evenodd"/></mask><mask id="h" fill="#fff"><path d="M.054 1.274a.92.92 0 001.836 0 .92.92 0 00-1.836 0zm.644 0a.274.274 0 11.55 0 .274.274 0 01-.55 0z" fill-rule="evenodd"/></mask><mask id="i" fill="#fff"><path d="M.96 1.393a.322.322 0 00.183.618c.033-.01 3.356-.974 6.244-.782a.327.327 0 00.343-.3.323.323 0 00-.3-.343A12.754 12.754 0 006.579.56c-2.748 0-5.49.797-5.618.834z" fill-rule="evenodd"/></mask><mask id="j" fill="#fff"><path d="M2.85.708L.665 1.899a.324.324 0 00.155.606.313.313 0 00.154-.04l2.185-1.191a.323.323 0 00-.31-.566z" fill-rule="evenodd"/></mask><mask id="k" fill="#fff"><path d="M1.446.772l-.661.348a.323.323 0 00.15.607.34.34 0 00.15-.036l.66-.348a.323.323 0 00.137-.436.324.324 0 00-.436-.135z" fill-rule="evenodd"/></mask><mask id="l" fill="#fff"><path d="M.465 1.737c0 .549 2.712.993 6.058.993s6.059-.444 6.059-.993c0-.548-2.713-.992-6.059-.992s-6.058.444-6.058.992z" fill-rule="evenodd"/></mask><mask id="m" fill="#fff"><path d="M.143 1.737c0 1.252 5.315 1.315 6.38 1.315 1.066 0 6.38-.063 6.38-1.315S7.589.422 6.523.422C5.458.422.143.485.143 1.737zm.712 0c.485-.296 2.585-.67 5.668-.67 3.084 0 5.183.374 5.669.67-.486.296-2.585.671-5.669.671-3.083 0-5.183-.375-5.668-.67z" fill-rule="evenodd"/></mask><g fill="none" fill-rule="evenodd"><path d="M-3.32 7.87H6.968V-3.493H-3.32z" fill="#0053cc" mask="url(#a)" transform="translate(19.857 14.429)"/><path d="M1.322 10.92l7.15 4.676h5.462l7.747-4.774-10.13-5.369z" fill="#b0d0ff"/><path d="M-3.929 14.846h28.86V-3.798H-3.93z" fill="#0053cc" mask="url(#b)" transform="translate(1 5)"/><path d="M-3.375 13.432h17.939V-3.914H-3.375z" fill="#0053cc" mask="url(#c)" transform="translate(10.429 5.786)"/><path d="M-3.857 10.015h20.323V-3.427H-3.857z" fill="#b0d0ff" mask="url(#d)" transform="translate(4.929 9.714)"/><g fill="#0053cc"><path d="M-3.393 10.338h20.967V-3.749H-3.393z" mask="url(#e)" transform="translate(4.143 9.714)"/><path d="M-3.423 8.842h9.346V-3.273h-9.346z" mask="url(#f)" transform="translate(15.143 10.5)"/><path d="M21.231 14.472h.645v-3.679h-.645z"/></g><path d="M-3.552 5.798h9.049v-9.05h-9.05z" fill="#b0d0ff" mask="url(#g)" transform="translate(20.643 13.643)"/><g fill="#0053cc"><path d="M-3.874 6.12h9.693v-9.693h-9.693z" mask="url(#h)" transform="translate(20.643 13.643)"/><path d="M-3.199 5.953H11.66v-9.322H-3.199z" mask="url(#i)" transform="translate(4.143 10.5)"/><path d="M-3.431 6.433H7.255v-9.694H-3.43z" mask="url(#j)" transform="translate(8.071 5.786)"/><path d="M-3.317 5.656h9.164v-8.85h-9.163z" mask="url(#k)" transform="translate(6.5 7.357)"/></g><path d="M-3.463 6.659h19.972v-9.844H-3.463z" fill="#5fa0ff" mask="url(#l)" transform="translate(4.929 13.643)"/><path d="M-3.786 6.981h20.618V-3.506H-3.786z" fill="#0053cc" mask="url(#m)" transform="translate(4.929 13.643)"/><path d="M21.383 15.187l-.595 2.86h1.787l-.596-2.86z" fill="#fff"/></g></svg>